<?xml version="1.0" encoding="UTF-8"?>
<!DOCTYPE svg PUBLIC "-//W3C//DTD SVG 1.1//EN" "http://www.w3.org/Graphics/SVG/1.1/DTD/svg11.dtd">
<!-- Creator: CorelDRAW 2021 (64-Bit) -->
<svg xmlns="http://www.w3.org/2000/svg" xml:space="preserve" width="59.1806in" height="64.565in" version="1.1" style="shape-rendering:geometricPrecision; text-rendering:geometricPrecision; image-rendering:optimizeQuality; fill-rule:evenodd; clip-rule:evenodd"
viewBox="0 0 20405.59 22262.14"
 xmlns:xlink="http://www.w3.org/1999/xlink"
 xmlns:xodm="http://www.corel.com/coreldraw/odm/2003">
 <defs>
  <style type="text/css">
   <![CDATA[
    .str0 {stroke:#373435;stroke-width:2.39;stroke-linecap:round;stroke-linejoin:round;stroke-miterlimit:2.61313}
    .fil0 {fill:#373435}
   ]]>
  </style>
 </defs>
 <g id="Layer_x0020_1">
  <metadata id="CorelCorpID_0Corel-Layer"/>
  <g id="_2402133734992">
   <g>
    <path class="fil0" d="M9688.08 5988.23c-19.21,-455.68 19.71,-918.2 223.49,-1491.37 809.54,-2277.06 2835.06,-3445.28 5260.96,-3152.08l-2577.11 2620.45c-149.45,142.69 -170.37,136.59 -124.81,400.69l410.24 2439.72c303.78,209.21 582.34,452.37 829.88,724.34l2588.01 447.93 2737.21 -2676.05c31.89,69.95 17.88,12.79 42.16,106.94 86.14,333.82 12.52,1253.17 -54.49,1579.35 -157.36,765.92 -465.13,1361.94 -900.24,1944.91 -161.46,216.32 -295.43,314.38 -469.13,509.29 -147.97,166.04 -316.42,280.2 -510.22,420.89 -158.45,115.06 -471.79,271.89 -587.66,384.65 160.09,216.43 718.93,760.62 909.47,907.04 888.79,-352.18 1919.82,-1637.56 2358.41,-2572.34 539.3,-1149.42 800.21,-3006.49 350.73,-4130.7 -227.45,-568.87 -966.41,-957.35 -1603.96,-524.4 -343.93,233.58 -2129.94,2054.65 -2490.99,2448.88 -124.23,135.64 -147.44,231.4 -368.01,218.05l-1637.82 -278.4c-69.69,-453.9 -140.42,-882.24 -220.39,-1329.04 -75.48,-421.72 -157.22,-370.3 437.78,-957.83 529.38,-522.71 1046.98,-1027.2 1561.11,-1560.95 209.43,-217.43 574.34,-475.01 716.5,-820.97 189.32,-460.8 6.73,-968.06 -266.64,-1200.74 -543.89,-462.91 -1862.58,-503.63 -2680.73,-398.6 -1107.79,142.23 -2173.7,601.57 -2978.45,1264.95 -766.02,631.47 -1085.02,1026.04 -1591.35,1949.05 -198.74,362.34 -124.25,902.74 -124.23,1473.21 0,248.13 -41.18,1059.82 10.18,1389.82 243,-64.69 493.52,-110.95 750.09,-136.7z"/>
    <path class="fil0" d="M8374.69 16306.48c381.6,-378.89 697.52,-700.49 822.15,-852.64l-14.32 -22.51c-446.61,-93.9 -870.28,-250.17 -1261.59,-459.18l-1121.72 1111.01c130.06,-11.39 261.62,-17.58 394.64,-17.58 448.53,0 786.82,116.78 1180.84,240.89zm-5412.75 2795.14c-1456.02,-40.75 -2181.19,-1780.12 -1317.88,-2785.27 283.01,-329.51 520.13,-582.62 837.21,-889.66l1903.91 -1917.05c381.76,-318.41 860.21,-809.17 1257.24,-1212.91 -166.02,-485.51 -256.25,-1006.12 -256.25,-1547.74 0,-11.68 0.35,-23.26 0.44,-34.91 -1504.05,1490.38 -3768.03,3767.51 -3879.7,3878.62 -379.1,377.29 -875.3,815.2 -1174.33,1390.05 -312.51,600.79 -431.97,1444.33 -240.11,2162.96 325,1217.21 1349.82,2117.19 2638.2,2235.36 14.79,-446.08 94.79,-875.73 231.26,-1279.45z"/>
    <path class="fil0" d="M9.11 2548.69l1398.64 1887.62c332.49,440.14 2269.08,2966.72 2382.8,3212.21l2737.51 -0.67c321.55,-377.32 700.63,-704.01 1123.64,-966.71 -40.15,-117.17 -4.7,-246.3 -4.98,-547.94l-1.78 -2236.96c-28.58,-158.91 -484.05,-428.17 -608.17,-521.07 -221.64,-165.88 -437.8,-323.43 -638.75,-479.93l-3843.49 -2868.28c-161.65,67.7 -2429.66,2341.06 -2545.42,2521.72zm10958.59 12918.81l878.88 876.98c448.95,-137.12 809.38,-278.88 1301.83,-278.88 69.69,0 138.95,1.83 207.87,4.98 -348.62,-344.39 -717.06,-710.07 -1046.26,-1040.9 -416.49,208.59 -867.55,358.18 -1342.32,437.82zm6582.08 4304.91c354.83,-379.93 760.18,-742.07 1126.58,-1105.73 439.92,-436.59 848.38,-838.67 1286.69,-1277.19 1218.58,-1219.2 -382.8,-2291.5 -1166.52,-3078.12 -910.67,-914.07 -2981.62,-3064.56 -3848.93,-3844.11 5.42,93.25 8.49,187.12 8.49,281.73 0,456.45 -64.07,898.02 -183.56,1316.2 307.94,307.37 605.81,618.23 917.11,925.81l2571.44 2554.81c216.99,216.65 633.53,682.34 850.88,827.19 -118.72,208.43 -1601.12,1643.86 -2020.34,2061.32 219.6,411.89 376.58,862.11 458.18,1338.08zm-15853.74 -17087.84c195.82,328.13 2734.5,3672.36 2815.83,3694.36l1862.39 -3.06 3.15 -1827.16c0,-118.66 -50.6,-123.67 -164.61,-210.28 -65.43,-49.72 -160.55,-115.06 -242.97,-176.24l-2348.9 -1752.63c-318.11,-233.95 -643.38,-516.74 -991.24,-721.47 -242.17,358.07 -676.51,594.68 -933.65,996.49z"/>
    <path class="fil0" d="M3040.77 16612.18c-893.67,258.66 -457.77,1432.6 338.12,1208.32 723.83,-203.96 479.05,-1444.84 -338.12,-1208.32z"/>
   </g>
   <path class="fil0 str0" d="M12912.79 16710.83c-865.15,0 -1281.14,426.91 -2700.95,426.91 -1419.8,0 -1832.77,-426.91 -2700.94,-426.91 -2236.72,0 -4051.45,1606.33 -4051.45,3586.21l0 683.1c0,707.12 648.11,1280.81 1446.94,1280.81l10610.89 0c798.85,0 1446.95,-573.69 1446.95,-1280.81l0 -683.1c0,-1979.87 -1814.71,-3586.21 -4051.45,-3586.21z"/>
   <path class="fil0 str0" d="M10173.2 14790.93c2248.57,0 4072.89,-1824.31 4072.89,-4072.89 0,-2248.58 -1824.32,-4072.89 -4072.89,-4072.89 -2248.57,0 -4072.88,1824.31 -4072.88,4072.89 0,2248.58 1824.31,4072.89 4072.88,4072.89z"/>
  </g>
 </g>
</svg>
