<?xml version="1.0" encoding="UTF-8"?>
<!DOCTYPE svg PUBLIC "-//W3C//DTD SVG 1.1//EN" "http://www.w3.org/Graphics/SVG/1.1/DTD/svg11.dtd">
<!-- Creator: CorelDRAW 2021 (64-Bit) -->
<svg xmlns="http://www.w3.org/2000/svg" xml:space="preserve" width="2.37976in" height="1.15683in" version="1.1" style="shape-rendering:geometricPrecision; text-rendering:geometricPrecision; image-rendering:optimizeQuality; fill-rule:evenodd; clip-rule:evenodd"
viewBox="0 0 318.29 154.72"
 xmlns:xlink="http://www.w3.org/1999/xlink"
 xmlns:xodm="http://www.corel.com/coreldraw/odm/2003">
 <defs>
  <style type="text/css">
   <![CDATA[
    .fil1 {fill:black}
    .fil0 {fill:black;fill-rule:nonzero}
   ]]>
  </style>
 </defs>
 <g id="Layer_x0020_1">
  <metadata id="CorelCorpID_0Corel-Layer"/>
  <path class="fil0" d="M-0 121.44l0 -27.59 5.87 0c1.95,0 3.77,0.35 5.47,1.05 1.69,0.7 3.17,1.68 4.42,2.93 1.25,1.26 2.23,2.72 2.94,4.39 0.71,1.67 1.06,3.48 1.08,5.42 0,1.95 -0.35,3.76 -1.06,5.43 -0.71,1.67 -1.7,3.14 -2.96,4.39 -1.27,1.25 -2.75,2.23 -4.43,2.93 -1.69,0.7 -3.51,1.05 -5.46,1.05l-5.87 0zm1.82 -1.64l3.93 0c1.72,0.01 3.31,-0.29 4.78,-0.92 1.46,-0.62 2.75,-1.49 3.86,-2.59 1.1,-1.1 1.97,-2.39 2.58,-3.86 0.61,-1.47 0.93,-3.07 0.94,-4.79 -0.01,-1.72 -0.32,-3.31 -0.94,-4.78 -0.61,-1.47 -1.48,-2.76 -2.58,-3.86 -1.11,-1.1 -2.4,-1.97 -3.87,-2.59 -1.47,-0.62 -3.06,-0.93 -4.76,-0.93l-3.95 -0.02 0.02 24.33z"/>
  <path id="_1" class="fil0" d="M33.9 121.97c-1.62,0 -3.07,-0.4 -4.35,-1.18 -1.29,-0.79 -2.31,-1.86 -3.06,-3.23 -0.75,-1.37 -1.13,-2.93 -1.13,-4.68 0,-1.76 0.37,-3.33 1.12,-4.69 0.75,-1.37 1.76,-2.44 3.05,-3.23 1.28,-0.78 2.74,-1.18 4.37,-1.18 1.63,0 3.1,0.4 4.41,1.19 1.32,0.79 2.3,1.88 2.94,3.28l0 -3.93 1.77 0 0 17.12 -1.77 0 0 -3.96c-0.72,1.4 -1.73,2.5 -3.01,3.3 -1.29,0.8 -2.74,1.2 -4.34,1.2zm0.37 -1.57c1.38,0 2.61,-0.32 3.67,-0.96 1.06,-0.64 1.9,-1.53 2.51,-2.66 0.6,-1.14 0.91,-2.44 0.91,-3.9 0,-1.47 -0.31,-2.77 -0.91,-3.91 -0.61,-1.13 -1.44,-2.02 -2.51,-2.66 -1.06,-0.64 -2.29,-0.96 -3.67,-0.96 -1.38,0 -2.61,0.32 -3.67,0.96 -1.06,0.64 -1.91,1.53 -2.52,2.66 -0.61,1.14 -0.92,2.44 -0.92,3.91 0,1.46 0.31,2.75 0.92,3.88 0.61,1.13 1.45,2.02 2.52,2.67 1.06,0.65 2.28,0.97 3.67,0.97z"/>
  <path id="_2" class="fil0" d="M50.52 121.44l0 -17.12 1.77 0 0 2.56c0.51,-1.03 1.19,-1.8 2.04,-2.32 0.85,-0.51 1.85,-0.77 3.01,-0.77 0.49,0 0.98,0.05 1.47,0.14 0.48,0.1 0.9,0.22 1.26,0.38l-0.72 1.5c-0.32,-0.16 -0.69,-0.27 -1.09,-0.35 -0.41,-0.08 -0.81,-0.12 -1.2,-0.12 -0.8,0 -1.57,0.21 -2.3,0.62 -0.73,0.42 -1.33,0.96 -1.78,1.62 -0.46,0.66 -0.69,1.37 -0.69,2.12l0 11.74 -1.77 0z"/>
  <path id="_3" class="fil0" d="M65 121.44l-0.02 -17.12 1.77 0 0 17.12 -1.76 0zm0.87 -20.5c-0.22,-0.01 -0.43,-0.07 -0.62,-0.18 -0.19,-0.1 -0.34,-0.25 -0.45,-0.45 -0.11,-0.19 -0.17,-0.4 -0.17,-0.62 0,-0.22 0.06,-0.42 0.17,-0.61 0.11,-0.18 0.26,-0.33 0.45,-0.45 0.19,-0.12 0.4,-0.17 0.62,-0.17 0.22,0 0.42,0.06 0.61,0.17 0.18,0.12 0.33,0.27 0.45,0.45 0.12,0.18 0.17,0.38 0.16,0.62 0.01,0.22 -0.04,0.43 -0.16,0.62 -0.12,0.2 -0.27,0.35 -0.45,0.46 -0.19,0.11 -0.39,0.17 -0.61,0.17z"/>
  <path id="_4" class="fil0" d="M95.98 121.97c-1.92,0 -3.72,-0.37 -5.4,-1.1 -1.68,-0.74 -3.16,-1.76 -4.43,-3.07 -1.27,-1.3 -2.27,-2.83 -2.98,-4.56 -0.72,-1.73 -1.08,-3.59 -1.08,-5.57 0,-2 0.36,-3.86 1.08,-5.58 0.71,-1.73 1.71,-3.24 2.98,-4.56 1.27,-1.31 2.75,-2.33 4.43,-3.07 1.68,-0.74 3.49,-1.1 5.42,-1.1 1.93,0 3.73,0.37 5.42,1.1 1.68,0.74 3.16,1.76 4.43,3.07 1.27,1.32 2.27,2.83 2.99,4.56 0.72,1.73 1.08,3.59 1.08,5.58 0,1.98 -0.36,3.84 -1.08,5.57 -0.72,1.73 -1.72,3.26 -2.99,4.56 -1.27,1.31 -2.75,2.33 -4.43,3.07 -1.68,0.74 -3.49,1.1 -5.43,1.1zm0.02 -1.76c1.66,0 3.22,-0.32 4.66,-0.97 1.45,-0.65 2.72,-1.54 3.81,-2.69 1.09,-1.15 1.93,-2.48 2.55,-4 0.61,-1.52 0.92,-3.15 0.92,-4.9 0,-1.75 -0.31,-3.38 -0.92,-4.9 -0.61,-1.52 -1.46,-2.85 -2.55,-4 -1.09,-1.15 -2.36,-2.05 -3.81,-2.69 -1.45,-0.65 -3,-0.97 -4.66,-0.97 -1.67,0 -3.23,0.32 -4.68,0.96 -1.45,0.64 -2.72,1.54 -3.8,2.69 -1.09,1.16 -1.94,2.49 -2.55,4.01 -0.61,1.52 -0.92,3.15 -0.92,4.9 0,1.75 0.31,3.38 0.92,4.9 0.61,1.52 1.47,2.85 2.55,4 1.08,1.15 2.35,2.06 3.8,2.69 1.45,0.64 3.01,0.96 4.68,0.96z"/>
  <path id="_5" class="fil0" d="M121.04 121.97c-1.4,0 -2.64,-0.37 -3.7,-1.11 -1.06,-0.74 -1.88,-1.79 -2.44,-3.15l1.07 -0.89c0.49,1.17 1.18,2.08 2.07,2.74 0.89,0.66 1.88,0.99 2.98,0.99 0.77,0 1.48,-0.17 2.14,-0.5 0.66,-0.33 1.18,-0.79 1.57,-1.39 0.39,-0.6 0.59,-1.32 0.59,-2.16 0,-0.75 -0.17,-1.33 -0.52,-1.75 -0.35,-0.42 -0.85,-0.78 -1.52,-1.08 -0.67,-0.3 -1.48,-0.64 -2.42,-1 -0.74,-0.29 -1.45,-0.61 -2.15,-0.98 -0.7,-0.36 -1.28,-0.82 -1.72,-1.39 -0.45,-0.56 -0.68,-1.28 -0.68,-2.15 0,-0.84 0.22,-1.58 0.66,-2.24 0.43,-0.66 1.04,-1.18 1.82,-1.57 0.77,-0.38 1.64,-0.57 2.61,-0.57 0.98,0 1.88,0.23 2.7,0.67 0.82,0.45 1.52,1.09 2.1,1.92l-0.97 0.95c-0.91,-1.45 -2.19,-2.17 -3.83,-2.17 -1.01,0 -1.84,0.27 -2.47,0.82 -0.64,0.55 -0.95,1.25 -0.95,2.12 0,0.62 0.18,1.13 0.55,1.53 0.36,0.4 0.84,0.74 1.44,1.01 0.6,0.28 1.27,0.56 1.99,0.84 1.04,0.39 1.93,0.77 2.7,1.15 0.76,0.38 1.35,0.86 1.77,1.44 0.42,0.59 0.62,1.38 0.62,2.38 0,1.11 -0.26,2.08 -0.77,2.92 -0.52,0.83 -1.23,1.48 -2.14,1.92 -0.91,0.45 -1.94,0.68 -3.1,0.68z"/>
  <path id="_6" class="fil0" d="M141.24 121.97c-1.76,0 -3.35,-0.38 -4.76,-1.15 -1.42,-0.77 -2.54,-1.84 -3.35,-3.2 -0.82,-1.36 -1.23,-2.94 -1.23,-4.74 0,-1.79 0.41,-3.38 1.24,-4.74 0.83,-1.37 1.94,-2.43 3.35,-3.2 1.4,-0.77 2.99,-1.15 4.75,-1.15 1.75,0 3.33,0.38 4.73,1.15 1.4,0.77 2.52,1.83 3.34,3.2 0.83,1.36 1.24,2.95 1.25,4.74 0,1.79 -0.42,3.38 -1.24,4.74 -0.84,1.37 -1.95,2.44 -3.34,3.2 -1.4,0.77 -2.98,1.15 -4.74,1.15zm0 -1.6c1.44,-0.01 2.72,-0.33 3.86,-0.98 1.13,-0.64 2.02,-1.52 2.67,-2.64 0.65,-1.12 0.98,-2.41 0.98,-3.87 0,-1.45 -0.33,-2.74 -0.98,-3.86 -0.66,-1.13 -1.55,-2.01 -2.67,-2.65 -1.13,-0.64 -2.42,-0.96 -3.86,-0.98 -1.46,0.01 -2.76,0.33 -3.88,0.98 -1.13,0.64 -2.02,1.52 -2.67,2.64 -0.66,1.13 -0.98,2.41 -0.98,3.87 0,1.45 0.32,2.74 0.98,3.86 0.65,1.13 1.54,2.01 2.67,2.65 1.13,0.65 2.42,0.97 3.88,0.98z"/>
  <path id="_7" class="fil0" d="M156.72 121.44l0 -17.12 1.77 0 0 2.56c0.51,-1.03 1.19,-1.8 2.04,-2.32 0.85,-0.51 1.85,-0.77 3.01,-0.77 0.49,0 0.98,0.05 1.47,0.14 0.48,0.1 0.9,0.22 1.26,0.38l-0.72 1.5c-0.32,-0.16 -0.69,-0.27 -1.09,-0.35 -0.41,-0.08 -0.81,-0.12 -1.2,-0.12 -0.8,0 -1.57,0.21 -2.3,0.62 -0.73,0.42 -1.33,0.96 -1.78,1.62 -0.46,0.66 -0.69,1.37 -0.69,2.12l0 11.74 -1.77 0z"/>
  <path id="_8" class="fil0" d="M171.2 121.44l-0.02 -17.12 1.77 0 0 17.12 -1.76 0zm0.87 -20.5c-0.22,-0.01 -0.43,-0.07 -0.62,-0.18 -0.19,-0.1 -0.34,-0.25 -0.45,-0.45 -0.11,-0.19 -0.17,-0.4 -0.17,-0.62 0,-0.22 0.06,-0.42 0.17,-0.61 0.11,-0.18 0.26,-0.33 0.45,-0.45 0.19,-0.12 0.4,-0.17 0.62,-0.17 0.22,0 0.42,0.06 0.61,0.17 0.18,0.12 0.33,0.27 0.45,0.45 0.12,0.18 0.17,0.38 0.16,0.62 0.01,0.22 -0.04,0.43 -0.16,0.62 -0.12,0.2 -0.27,0.35 -0.45,0.46 -0.19,0.11 -0.39,0.17 -0.61,0.17z"/>
  <path id="_9" class="fil0" d="M188.55 121.97c-1.76,0 -3.35,-0.38 -4.76,-1.15 -1.42,-0.77 -2.54,-1.84 -3.35,-3.2 -0.82,-1.36 -1.23,-2.94 -1.23,-4.74 0,-1.79 0.41,-3.38 1.24,-4.74 0.83,-1.37 1.94,-2.43 3.35,-3.2 1.4,-0.77 2.99,-1.15 4.75,-1.15 1.75,0 3.33,0.38 4.73,1.15 1.4,0.77 2.52,1.83 3.34,3.2 0.83,1.36 1.24,2.95 1.25,4.74 0,1.79 -0.42,3.38 -1.24,4.74 -0.84,1.37 -1.95,2.44 -3.34,3.2 -1.4,0.77 -2.98,1.15 -4.74,1.15zm0 -1.6c1.44,-0.01 2.72,-0.33 3.86,-0.98 1.13,-0.64 2.02,-1.52 2.67,-2.64 0.65,-1.12 0.98,-2.41 0.98,-3.87 0,-1.45 -0.33,-2.74 -0.98,-3.86 -0.66,-1.13 -1.55,-2.01 -2.67,-2.65 -1.13,-0.64 -2.42,-0.96 -3.86,-0.98 -1.46,0.01 -2.76,0.33 -3.88,0.98 -1.13,0.64 -2.02,1.52 -2.67,2.64 -0.66,1.13 -0.98,2.41 -0.98,3.87 0,1.45 0.32,2.74 0.98,3.86 0.65,1.13 1.54,2.01 2.67,2.65 1.13,0.65 2.42,0.97 3.88,0.98z"/>
  <path id="_10" class="fil0" d="M217.88 121.97c-2.43,0 -4.52,-0.85 -6.27,-2.56l0.82 -1.52c1.5,1.57 3.29,2.36 5.37,2.36 2.06,0 3.66,-0.63 4.79,-1.88 1.13,-1.25 1.69,-3.02 1.69,-5.29l0 -19.23 1.84 0 0 19.83c0,2.61 -0.73,4.64 -2.18,6.1 -1.45,1.46 -3.48,2.19 -6.06,2.19z"/>
  <path id="_11" class="fil0" d="M240.8 121.97c-2.47,0 -4.24,-0.58 -5.28,-1.73 -1.05,-1.15 -1.57,-3.09 -1.57,-5.81l0 -10.11 1.77 0 0 9.86c0,2.25 0.39,3.86 1.17,4.82 0.78,0.96 2.08,1.45 3.91,1.45 1.83,0 3.13,-0.48 3.91,-1.45 0.77,-0.96 1.16,-2.57 1.16,-4.82l0 -9.86 1.77 0 0 10.11c0,2.72 -0.52,4.66 -1.56,5.81 -1.04,1.15 -2.8,1.73 -5.28,1.73z"/>
  <path id="_12" class="fil0" d="M254.84 121.44l0 -17.12 1.77 0 0 2.44c0.42,-0.81 1.13,-1.52 2.1,-2.1 0.97,-0.58 2.2,-0.88 3.67,-0.88 1.33,0 2.46,0.27 3.41,0.81 0.95,0.54 1.67,1.33 2.17,2.37 0.5,1.04 0.75,2.32 0.75,3.82l0 10.65 -1.77 0 0 -10.33c0,-1.89 -0.43,-3.34 -1.31,-4.34 -0.88,-1 -2.11,-1.49 -3.71,-1.49 -1.11,0 -2.07,0.22 -2.86,0.67 -0.79,0.45 -1.4,1.03 -1.82,1.76 -0.42,0.72 -0.64,1.5 -0.64,2.32l0 11.42 -1.77 0z"/>
  <path id="_13" class="fil0" d="M275.9 121.44l-0.02 -17.12 1.77 0 0 17.12 -1.76 0zm0.87 -20.5c-0.22,-0.01 -0.43,-0.07 -0.62,-0.18 -0.19,-0.1 -0.34,-0.25 -0.45,-0.45 -0.11,-0.19 -0.17,-0.4 -0.17,-0.62 0,-0.22 0.06,-0.42 0.17,-0.61 0.11,-0.18 0.26,-0.33 0.45,-0.45 0.19,-0.12 0.4,-0.17 0.62,-0.17 0.22,0 0.42,0.06 0.61,0.17 0.18,0.12 0.33,0.27 0.45,0.45 0.12,0.18 0.17,0.38 0.16,0.62 0.01,0.22 -0.04,0.43 -0.16,0.62 -0.12,0.2 -0.27,0.35 -0.45,0.46 -0.19,0.11 -0.39,0.17 -0.61,0.17z"/>
  <path id="_14" class="fil0" d="M293.26 121.97c-1.76,0 -3.35,-0.38 -4.76,-1.15 -1.42,-0.77 -2.54,-1.84 -3.35,-3.2 -0.82,-1.36 -1.23,-2.94 -1.23,-4.74 0,-1.79 0.41,-3.38 1.24,-4.74 0.83,-1.37 1.94,-2.43 3.35,-3.2 1.4,-0.77 2.99,-1.15 4.75,-1.15 1.75,0 3.33,0.38 4.73,1.15 1.4,0.77 2.52,1.83 3.34,3.2 0.83,1.36 1.24,2.95 1.25,4.74 0,1.79 -0.42,3.38 -1.24,4.74 -0.84,1.37 -1.95,2.44 -3.34,3.2 -1.4,0.77 -2.98,1.15 -4.74,1.15zm0 -1.6c1.44,-0.01 2.72,-0.33 3.86,-0.98 1.13,-0.64 2.02,-1.52 2.67,-2.64 0.65,-1.12 0.98,-2.41 0.98,-3.87 0,-1.45 -0.33,-2.74 -0.98,-3.86 -0.66,-1.13 -1.55,-2.01 -2.67,-2.65 -1.13,-0.64 -2.42,-0.96 -3.86,-0.98 -1.46,0.01 -2.76,0.33 -3.88,0.98 -1.13,0.64 -2.02,1.52 -2.67,2.64 -0.66,1.13 -0.98,2.41 -0.98,3.87 0,1.45 0.32,2.74 0.98,3.86 0.65,1.13 1.54,2.01 2.67,2.65 1.13,0.65 2.42,0.97 3.88,0.98z"/>
  <path id="_15" class="fil0" d="M308.74 121.44l0 -17.12 1.77 0 0 2.56c0.51,-1.03 1.19,-1.8 2.04,-2.32 0.85,-0.51 1.85,-0.77 3.01,-0.77 0.49,0 0.98,0.05 1.47,0.14 0.48,0.1 0.9,0.22 1.26,0.38l-0.72 1.5c-0.32,-0.16 -0.69,-0.27 -1.09,-0.35 -0.41,-0.08 -0.81,-0.12 -1.2,-0.12 -0.8,0 -1.57,0.21 -2.3,0.62 -0.73,0.42 -1.33,0.96 -1.78,1.62 -0.46,0.66 -0.69,1.37 -0.69,2.12l0 11.74 -1.77 0z"/>
  <g id="_2652785770240">
   <polygon class="fil1" points="135.41,11.01 137.71,13.06 137.71,72.96 135.28,75.21 "/>
   <polygon class="fil1" points="135.4,0 139.64,0 184.21,43.11 139.64,86.46 135.4,86.46 179.96,43.1 "/>
  </g>
  <polygon class="fil0" points="62.57,149.89 62.57,134.57 69.86,134.57 69.86,135.03 62.63,135.03 63.09,134.75 63.09,142.82 62.63,141.98 69.43,141.98 69.43,142.44 62.63,142.44 63.09,141.61 63.09,149.89 "/>
  <path id="_1_0" class="fil0" d="M76.92 150.19c-1.28,0 -2.19,-0.32 -2.72,-0.94 -0.54,-0.63 -0.81,-1.69 -0.81,-3.2l0 -5.67 0.52 0 0 5.67c0,1.31 0.23,2.25 0.69,2.81 0.46,0.56 1.23,0.85 2.32,0.85 1.08,0 1.86,-0.28 2.32,-0.85 0.46,-0.56 0.69,-1.5 0.69,-2.81l0 -5.67 0.52 0 0 5.67c0,1.5 -0.27,2.57 -0.8,3.2 -0.54,0.63 -1.45,0.94 -2.73,0.94z"/>
  <polygon id="_2_1" class="fil0" points="84.67,149.89 84.67,133.92 85.19,133.92 85.19,149.89 "/>
  <polygon id="_3_2" class="fil0" points="89.56,149.89 89.56,133.92 90.08,133.92 90.08,149.89 "/>
  <path id="_4_3" class="fil0" d="M102.99 150.19c-0.84,0 -1.55,-0.14 -2.15,-0.42 -0.6,-0.28 -1.09,-0.62 -1.48,-1.01 -0.39,-0.39 -0.68,-0.77 -0.89,-1.13 -0.2,-0.36 -0.33,-0.61 -0.37,-0.76l0.41 -0.22c0.06,0.17 0.18,0.42 0.37,0.75 0.19,0.33 0.46,0.68 0.82,1.03 0.35,0.36 0.8,0.66 1.34,0.91 0.54,0.25 1.19,0.38 1.94,0.38 0.72,0 1.39,-0.14 2.01,-0.41 0.61,-0.27 1.11,-0.67 1.48,-1.21 0.37,-0.53 0.56,-1.2 0.56,-1.99 0,-0.65 -0.13,-1.2 -0.37,-1.64 -0.25,-0.45 -0.59,-0.82 -1.01,-1.12 -0.42,-0.3 -0.89,-0.55 -1.4,-0.77 -0.51,-0.21 -1.03,-0.4 -1.55,-0.58 -0.35,-0.12 -0.73,-0.26 -1.15,-0.44 -0.42,-0.17 -0.82,-0.4 -1.21,-0.68 -0.39,-0.28 -0.71,-0.64 -0.96,-1.07 -0.25,-0.43 -0.38,-0.97 -0.38,-1.62 0,-0.54 0.1,-1.05 0.29,-1.52 0.19,-0.47 0.47,-0.89 0.82,-1.24 0.35,-0.36 0.77,-0.63 1.25,-0.84 0.48,-0.2 1.01,-0.3 1.59,-0.3 0.64,0 1.21,0.11 1.71,0.34 0.49,0.23 0.9,0.52 1.23,0.86 0.33,0.35 0.57,0.69 0.72,1.04l-0.43 0.2c-0.12,-0.32 -0.33,-0.63 -0.63,-0.93 -0.29,-0.3 -0.66,-0.55 -1.1,-0.75 -0.44,-0.19 -0.94,-0.29 -1.51,-0.29 -0.74,0 -1.37,0.17 -1.89,0.51 -0.52,0.34 -0.91,0.77 -1.18,1.3 -0.27,0.53 -0.4,1.07 -0.4,1.63 0,0.54 0.11,0.99 0.33,1.36 0.22,0.37 0.5,0.68 0.85,0.93 0.35,0.25 0.72,0.45 1.13,0.62 0.4,0.16 0.79,0.31 1.16,0.43 0.53,0.18 1.07,0.38 1.6,0.61 0.54,0.23 1.03,0.5 1.48,0.84 0.45,0.33 0.81,0.75 1.08,1.24 0.27,0.5 0.41,1.11 0.41,1.84 0,0.88 -0.21,1.63 -0.62,2.24 -0.41,0.61 -0.97,1.08 -1.65,1.4 -0.68,0.32 -1.44,0.48 -2.26,0.48z"/>
  <path id="_5_4" class="fil0" d="M113.28 150.19c-0.58,0 -1.03,-0.21 -1.35,-0.62 -0.32,-0.41 -0.47,-0.99 -0.47,-1.74l0 -7.06 -0.8 0 0 -0.39 0.8 0 0 -3.55 0.52 0 0 3.55 2.53 0 0 0.39 -2.53 0 0 7.06c0,0.62 0.12,1.09 0.35,1.42 0.24,0.33 0.57,0.49 1.01,0.49 0.41,0 0.75,-0.11 1.03,-0.32l0.13 0.41c-0.14,0.11 -0.33,0.19 -0.54,0.26 -0.22,0.07 -0.45,0.1 -0.68,0.1z"/>
  <path id="_6_5" class="fil0" d="M121.82 150.19c-0.9,0 -1.72,-0.22 -2.43,-0.66 -0.72,-0.44 -1.28,-1.03 -1.7,-1.8 -0.41,-0.76 -0.62,-1.63 -0.62,-2.6 0,-0.98 0.21,-1.85 0.62,-2.61 0.41,-0.76 0.98,-1.36 1.7,-1.79 0.72,-0.43 1.53,-0.65 2.43,-0.65 0.96,0 1.82,0.24 2.59,0.73 0.77,0.49 1.33,1.15 1.68,2l0 -2.43 0.52 0 0 9.51 -0.52 0 0 -2.43c-0.39,0.85 -0.96,1.51 -1.72,2 -0.76,0.49 -1.61,0.73 -2.55,0.73zm0.04 -0.48c0.84,0 1.58,-0.19 2.22,-0.59 0.64,-0.39 1.15,-0.93 1.52,-1.62 0.37,-0.69 0.55,-1.48 0.55,-2.36 0,-0.89 -0.18,-1.68 -0.55,-2.37 -0.37,-0.69 -0.87,-1.23 -1.52,-1.62 -0.65,-0.39 -1.39,-0.59 -2.23,-0.59 -0.83,0 -1.57,0.2 -2.21,0.59 -0.65,0.39 -1.16,0.93 -1.52,1.62 -0.37,0.69 -0.55,1.48 -0.55,2.37 0,0.89 0.19,1.67 0.55,2.36 0.37,0.69 0.88,1.23 1.52,1.62 0.64,0.39 1.38,0.59 2.21,0.59z"/>
  <path id="_7_6" class="fil0" d="M135.38 150.19c-0.71,0 -1.38,-0.12 -1.99,-0.37 -0.62,-0.25 -1.15,-0.6 -1.62,-1.05 -0.46,-0.45 -0.82,-0.99 -1.08,-1.6 -0.26,-0.62 -0.39,-1.29 -0.39,-2.03 0,-0.74 0.13,-1.42 0.39,-2.04 0.26,-0.62 0.62,-1.15 1.08,-1.6 0.46,-0.45 1,-0.8 1.62,-1.05 0.61,-0.24 1.28,-0.37 1.99,-0.37 0.63,0 1.23,0.1 1.79,0.29 0.56,0.19 1.06,0.47 1.5,0.82l-0.32 0.35c-0.82,-0.66 -1.81,-0.98 -2.97,-0.98 -0.89,0 -1.67,0.2 -2.36,0.59 -0.69,0.39 -1.24,0.93 -1.63,1.62 -0.4,0.69 -0.59,1.47 -0.59,2.36 0,0.87 0.2,1.66 0.59,2.34 0.39,0.69 0.94,1.24 1.63,1.63 0.69,0.4 1.48,0.59 2.38,0.59 0.56,0 1.1,-0.08 1.6,-0.25 0.5,-0.17 0.95,-0.41 1.35,-0.73l0.33 0.35c-0.45,0.35 -0.95,0.63 -1.5,0.82 -0.56,0.19 -1.15,0.29 -1.78,0.29z"/>
  <polygon id="_8_7" class="fil0" points="142.01,149.89 142.01,133.92 142.53,133.92 142.53,144.51 146.48,140.38 147.17,140.38 143.02,144.75 147.41,149.89 146.74,149.89 142.53,144.96 142.53,149.89 "/>
  <path id="_9_8" class="fil0" d="M156.42 149.89l0 -15.33 3.03 0c1.09,0 2.11,0.19 3.04,0.59 0.94,0.39 1.76,0.93 2.46,1.63 0.7,0.7 1.24,1.51 1.64,2.44 0.39,0.93 0.59,1.93 0.59,3.01 0,1.08 -0.19,2.09 -0.59,3.02 -0.39,0.93 -0.94,1.74 -1.64,2.44 -0.71,0.7 -1.53,1.24 -2.46,1.63 -0.94,0.39 -1.95,0.58 -3.04,0.58l-3.03 0zm0.52 -0.46l2.51 0c1.02,0 1.96,-0.19 2.83,-0.55 0.87,-0.37 1.64,-0.88 2.3,-1.53 0.66,-0.65 1.17,-1.41 1.54,-2.29 0.37,-0.87 0.55,-1.81 0.55,-2.82 0,-1.01 -0.18,-1.95 -0.55,-2.82 -0.37,-0.87 -0.89,-1.63 -1.54,-2.29 -0.66,-0.66 -1.43,-1.17 -2.3,-1.54 -0.88,-0.37 -1.82,-0.55 -2.83,-0.55l-2.51 0 0 14.4z"/>
  <path id="_10_9" class="fil0" d="M175.63 150.19c-0.99,0 -1.87,-0.22 -2.63,-0.67 -0.77,-0.44 -1.37,-1.04 -1.79,-1.79 -0.43,-0.75 -0.65,-1.59 -0.65,-2.53 0,-0.72 0.13,-1.4 0.39,-2.02 0.26,-0.62 0.61,-1.16 1.06,-1.63 0.45,-0.46 0.97,-0.82 1.55,-1.08 0.59,-0.26 1.21,-0.39 1.88,-0.39 0.85,0 1.63,0.21 2.35,0.62 0.71,0.41 1.3,0.98 1.76,1.7 0.45,0.72 0.72,1.53 0.78,2.44 0.01,0.06 0.01,0.11 0.01,0.14 0,0.04 0,0.09 0,0.15l-9.29 0c0,0.88 0.2,1.67 0.59,2.35 0.39,0.69 0.93,1.24 1.63,1.63 0.69,0.39 1.48,0.59 2.37,0.59 0.84,0 1.6,-0.18 2.28,-0.54 0.68,-0.36 1.22,-0.86 1.62,-1.5l0.41 0.26c-0.45,0.72 -1.06,1.28 -1.81,1.67 -0.75,0.4 -1.59,0.59 -2.5,0.59zm-4.57 -5.52l8.75 0c-0.07,-0.78 -0.32,-1.48 -0.72,-2.1 -0.41,-0.62 -0.93,-1.11 -1.56,-1.47 -0.63,-0.36 -1.33,-0.54 -2.08,-0.54 -0.76,0 -1.45,0.18 -2.09,0.54 -0.64,0.36 -1.16,0.85 -1.57,1.47 -0.41,0.62 -0.65,1.32 -0.72,2.1z"/>
  <polygon id="_11_10" class="fil0" points="186.97,149.89 182.57,140.38 183.16,140.38 187.14,148.98 191.11,140.38 191.71,140.38 187.3,149.89 "/>
  <path id="_12_11" class="fil0" d="M199.22 150.19c-0.99,0 -1.87,-0.22 -2.63,-0.67 -0.77,-0.44 -1.37,-1.04 -1.79,-1.79 -0.43,-0.75 -0.65,-1.59 -0.65,-2.53 0,-0.72 0.13,-1.4 0.39,-2.02 0.26,-0.62 0.61,-1.16 1.06,-1.63 0.45,-0.46 0.97,-0.82 1.55,-1.08 0.59,-0.26 1.21,-0.39 1.88,-0.39 0.85,0 1.63,0.21 2.35,0.62 0.71,0.41 1.3,0.98 1.76,1.7 0.45,0.72 0.72,1.53 0.78,2.44 0.01,0.06 0.01,0.11 0.01,0.14 0,0.04 0,0.09 0,0.15l-9.29 0c0,0.88 0.2,1.67 0.59,2.35 0.39,0.69 0.93,1.24 1.63,1.63 0.69,0.39 1.48,0.59 2.37,0.59 0.84,0 1.6,-0.18 2.28,-0.54 0.68,-0.36 1.22,-0.86 1.62,-1.5l0.41 0.26c-0.45,0.72 -1.06,1.28 -1.81,1.67 -0.75,0.4 -1.59,0.59 -2.5,0.59zm-4.57 -5.52l8.75 0c-0.07,-0.78 -0.32,-1.48 -0.72,-2.1 -0.41,-0.62 -0.93,-1.11 -1.56,-1.47 -0.63,-0.36 -1.33,-0.54 -2.08,-0.54 -0.76,0 -1.45,0.18 -2.09,0.54 -0.64,0.36 -1.16,0.85 -1.57,1.47 -0.41,0.62 -0.65,1.32 -0.72,2.1z"/>
  <polygon id="_13_12" class="fil0" points="207.4,149.89 207.4,133.92 207.92,133.92 207.92,149.89 "/>
  <path id="_14_13" class="fil0" d="M216.71 150.19c-0.96,0 -1.82,-0.21 -2.59,-0.64 -0.77,-0.43 -1.38,-1.02 -1.82,-1.78 -0.45,-0.76 -0.68,-1.63 -0.68,-2.63 0,-1 0.23,-1.88 0.68,-2.63 0.45,-0.76 1.06,-1.35 1.82,-1.78 0.77,-0.43 1.63,-0.64 2.59,-0.64 0.96,0 1.82,0.21 2.59,0.64 0.77,0.43 1.37,1.02 1.83,1.78 0.45,0.76 0.67,1.64 0.67,2.63 0,1 -0.23,1.88 -0.67,2.63 -0.45,0.76 -1.06,1.35 -1.83,1.78 -0.77,0.43 -1.63,0.64 -2.59,0.64zm0 -0.52c0.89,0 1.67,-0.2 2.36,-0.59 0.69,-0.39 1.23,-0.93 1.62,-1.61 0.39,-0.68 0.59,-1.46 0.59,-2.34 0,-0.88 -0.2,-1.66 -0.59,-2.34 -0.4,-0.68 -0.94,-1.22 -1.62,-1.61 -0.69,-0.39 -1.47,-0.59 -2.36,-0.59 -0.89,0 -1.67,0.19 -2.36,0.59 -0.69,0.39 -1.23,0.93 -1.62,1.61 -0.39,0.68 -0.59,1.46 -0.59,2.34 0,0.88 0.2,1.66 0.59,2.34 0.39,0.68 0.93,1.22 1.62,1.61 0.69,0.39 1.47,0.59 2.36,0.59z"/>
  <path id="_15_14" class="fil0" d="M225.46 154.72l0 -14.34 0.52 0 0 2.41c0.38,-0.85 0.95,-1.51 1.71,-1.99 0.76,-0.48 1.6,-0.72 2.54,-0.72 0.92,0 1.73,0.22 2.45,0.66 0.72,0.44 1.28,1.04 1.7,1.8 0.41,0.76 0.62,1.63 0.62,2.6 0,0.97 -0.21,1.83 -0.62,2.59 -0.41,0.76 -0.98,1.36 -1.7,1.8 -0.72,0.44 -1.54,0.66 -2.45,0.66 -0.94,0 -1.78,-0.24 -2.54,-0.73 -0.76,-0.49 -1.33,-1.15 -1.72,-2l0 7.26 -0.52 0zm4.76 -5.02c0.83,0 1.57,-0.2 2.22,-0.59 0.64,-0.39 1.15,-0.93 1.52,-1.62 0.37,-0.69 0.55,-1.47 0.55,-2.36 0,-0.89 -0.19,-1.68 -0.55,-2.37 -0.37,-0.69 -0.88,-1.23 -1.52,-1.62 -0.64,-0.39 -1.38,-0.59 -2.22,-0.59 -0.84,0 -1.58,0.2 -2.22,0.59 -0.64,0.39 -1.15,0.93 -1.52,1.62 -0.37,0.69 -0.55,1.48 -0.55,2.37 0,0.89 0.18,1.67 0.55,2.36 0.37,0.69 0.88,1.23 1.52,1.62 0.64,0.39 1.38,0.59 2.21,0.59z"/>
  <path id="_16" class="fil0" d="M243.11 150.19c-0.99,0 -1.87,-0.22 -2.63,-0.67 -0.77,-0.44 -1.37,-1.04 -1.79,-1.79 -0.43,-0.75 -0.65,-1.59 -0.65,-2.53 0,-0.72 0.13,-1.4 0.39,-2.02 0.26,-0.62 0.61,-1.16 1.06,-1.63 0.45,-0.46 0.97,-0.82 1.55,-1.08 0.59,-0.26 1.21,-0.39 1.88,-0.39 0.85,0 1.63,0.21 2.35,0.62 0.71,0.41 1.3,0.98 1.76,1.7 0.45,0.72 0.72,1.53 0.78,2.44 0.01,0.06 0.01,0.11 0.01,0.14 0,0.04 0,0.09 0,0.15l-9.29 0c0,0.88 0.2,1.67 0.59,2.35 0.39,0.69 0.93,1.24 1.63,1.63 0.69,0.39 1.48,0.59 2.37,0.59 0.84,0 1.6,-0.18 2.28,-0.54 0.68,-0.36 1.22,-0.86 1.62,-1.5l0.41 0.26c-0.45,0.72 -1.06,1.28 -1.81,1.67 -0.75,0.4 -1.59,0.59 -2.5,0.59zm-4.57 -5.52l8.75 0c-0.07,-0.78 -0.32,-1.48 -0.72,-2.1 -0.41,-0.62 -0.93,-1.11 -1.56,-1.47 -0.63,-0.36 -1.33,-0.54 -2.08,-0.54 -0.76,0 -1.45,0.18 -2.09,0.54 -0.64,0.36 -1.16,0.85 -1.57,1.47 -0.41,0.62 -0.65,1.32 -0.72,2.1z"/>
  <path id="_17" class="fil0" d="M251.3 149.89l0 -9.51 0.52 0 0 1.43c0.27,-0.58 0.63,-1.01 1.09,-1.3 0.46,-0.28 1.02,-0.43 1.67,-0.43 0.25,0 0.5,0.02 0.75,0.06 0.25,0.04 0.47,0.1 0.66,0.16l-0.2 0.45c-0.17,-0.07 -0.37,-0.12 -0.58,-0.15 -0.22,-0.03 -0.42,-0.05 -0.63,-0.05 -0.47,0 -0.92,0.12 -1.34,0.36 -0.42,0.24 -0.76,0.55 -1.03,0.94 -0.27,0.38 -0.4,0.79 -0.4,1.23l0 6.82 -0.52 0z"/>
 </g>
</svg>
